<?xml version="1.0" standalone="no"?>
<!DOCTYPE svg PUBLIC "-//W3C//DTD SVG 20010904//EN"
 "http://www.w3.org/TR/2001/REC-SVG-20010904/DTD/svg10.dtd">
<svg version="1.0" xmlns="http://www.w3.org/2000/svg"
 width="178.000000pt" height="178.000000pt" viewBox="0 0 178.000000 178.000000"
 preserveAspectRatio="xMidYMid meet">
<metadata>
Created by potrace 1.11, written by Peter Selinger 2001-2013
</metadata>
<g transform="translate(0.000000,178.000000) scale(0.100000,-0.100000)"
fill="#000000" stroke="none">
<path d="M497 1733 c-1 -1 -42 -3 -90 -4 -48 -2 -93 -7 -100 -11 -8 -5 -12
-81 -13 -288 0 -154 -3 -283 -7 -286 -3 -4 -66 -9 -139 -11 -73 -3 -135 -7
-138 -10 -3 -2 -5 -94 -5 -204 l-1 -199 51 -1 c133 -3 224 -7 232 -12 4 -3 8
-152 8 -331 0 -208 4 -327 10 -329 11 -4 491 -10 747 -9 290 0 418 16 509 63
50 25 151 130 177 182 33 68 35 77 38 182 2 80 -1 112 -17 159 -37 108 -106
190 -209 250 -36 21 -66 39 -68 41 -1 1 29 25 67 53 38 27 82 70 99 94 78 114
87 302 21 442 -27 58 -118 150 -178 180 -63 32 -91 35 -466 42 -181 3 -374 6
-428 7 -54 1 -99 1 -100 0z m111 -347 c1 -2 4 -65 6 -142 2 -76 5 -144 5 -150
1 -8 45 -11 141 -10 77 1 140 -1 141 -4 7 -35 2 -310 -6 -311 -14 -1 -93 -5
-192 -10 l-83 -3 -1 -71 c-1 -80 -6 -215 -8 -231 -1 -7 -46 -11 -138 -10
l-138 1 -3 150 c-2 89 -7 152 -14 156 -5 4 -44 7 -86 9 -143 4 -167 6 -177 12
-8 5 -12 201 -6 298 1 14 22 16 141 15 l140 -1 1 26 c1 14 2 75 4 135 3 148 2
143 28 147 24 3 240 -2 245 -6z m431 -51 c79 -10 111 -42 111 -113 0 -34 -6
-49 -28 -72 -28 -27 -31 -28 -150 -29 l-122 -2 -1 58 c0 32 -2 83 -3 115 l-2
56 75 -4 c42 -2 96 -6 120 -9z m-41 -619 c130 -7 174 -22 196 -65 32 -60 18
-148 -26 -172 -34 -19 -43 -20 -153 -19 -116 1 -146 3 -160 12 -16 10 -12 238
5 248 8 5 17 7 20 5 3 -1 56 -6 118 -9z"/>
</g>
</svg>
