<?xml version="1.0" encoding="UTF-8"?>
<svg xmlns="http://www.w3.org/2000/svg" xmlns:xlink="http://www.w3.org/1999/xlink" width="135pt" height="55pt" viewBox="0 0 135 55" version="1.1">
<g id="surface1">
<rect x="0" y="0" width="135" height="55" style="fill:rgb(100%,100%,100%);fill-opacity:1;stroke:none;"/>
<path style=" stroke:none;fill-rule:nonzero;fill:rgb(100%,43.529412%,0%);fill-opacity:1;" d="M 72.242188 1.085938 C 70.214844 2.636719 65.023438 7.144531 63.492188 8.695312 C 62.175781 10.054688 60.390625 12.234375 57.15625 16.453125 C 55.691406 18.34375 55.539062 18.441406 51.339844 19.652344 C 45.738281 21.300781 44.445312 21.832031 43.96875 22.707031 C 43.515625 23.53125 43.796875 23.480469 49.808594 21.882812 C 51.8125 21.347656 53.492188 21.007812 53.535156 21.105469 C 53.578125 21.203125 52.824219 22.511719 51.835938 24.015625 C 49.226562 27.941406 47.523438 31.09375 47.632812 31.722656 C 47.804688 32.980469 48.410156 32.402344 50.371094 29.152344 C 51.488281 27.3125 53.300781 24.546875 54.355469 23.046875 L 56.296875 20.28125 L 60.042969 19.359375 C 62.113281 18.875 63.859375 18.632812 63.921875 18.730469 C 63.964844 18.875 63.449219 20.136719 62.738281 21.492188 C 62.046875 22.898438 60.863281 25.371094 60.109375 26.921875 C 58.816406 29.734375 58.773438 29.878906 59.246094 30.269531 C 59.765625 30.703125 60.734375 30.414062 61.941406 29.589844 C 62.308594 29.347656 64.074219 26.4375 65.863281 23.191406 L 69.117188 17.226562 L 72.714844 16.40625 C 74.71875 15.917969 78.125 15.09375 80.320312 14.609375 C 94.003906 11.363281 107.601562 8.695312 116.800781 7.535156 C 119.171875 7.242188 119.773438 6.855469 118.976562 6.175781 C 118.785156 6.03125 117.449219 5.886719 115.984375 5.886719 C 114.429688 5.886719 113.269531 5.691406 113.179688 5.402344 C 112.964844 4.578125 109.667969 4.867188 104.175781 6.128906 C 101.308594 6.757812 97.945312 7.535156 96.699219 7.824219 C 95.449219 8.117188 89.113281 9.667969 82.605469 11.265625 C 76.097656 12.867188 70.6875 14.078125 70.582031 14.027344 C 70.453125 13.933594 71.574219 11.558594 73.015625 8.695312 C 76.550781 1.910156 76.65625 1.621094 76.527344 0.796875 C 76.335938 -0.320312 73.835938 -0.125 72.242188 1.085938 Z M 69.546875 7.921875 C 66.984375 13.15625 65.648438 15.53125 65.085938 15.773438 C 64.136719 16.210938 59.183594 17.179688 59.097656 16.9375 C 58.792969 16.257812 69.203125 6.03125 70.300781 5.933594 C 70.429688 5.933594 70.085938 6.804688 69.546875 7.921875 Z M 69.546875 7.921875 "/>
<path style=" stroke:none;fill-rule:nonzero;fill:rgb(100%,43.529412%,0%);fill-opacity:1;" d="M 109.195312 10.585938 C 108.527344 11.167969 105.078125 16.695312 104.605469 17.957031 C 103.59375 20.671875 99.152344 23.433594 98.3125 21.882812 C 97.816406 20.960938 97.925781 20.574219 98.808594 20.183594 C 100.339844 19.554688 102.882812 17.421875 103.507812 16.257812 C 104.109375 15.144531 104.109375 15.09375 103.722656 14.367188 C 103.484375 13.980469 103.03125 13.640625 102.730469 13.640625 C 100.554688 13.640625 96.890625 16.792969 96.09375 19.359375 C 95.40625 21.542969 91.742188 24.113281 92 22.222656 C 92.085938 21.738281 92.753906 20.621094 94.476562 18.148438 C 94.84375 17.617188 94.84375 17.566406 94.414062 16.550781 C 93.980469 15.53125 93.875 15.53125 93.121094 16.066406 C 92.644531 16.40625 91.265625 17.761719 90.039062 19.023438 C 88.8125 20.332031 87.734375 21.398438 87.667969 21.398438 C 87.605469 21.398438 87.96875 20.523438 88.488281 19.507812 C 89.199219 18.148438 89.414062 17.421875 89.285156 16.792969 C 89.027344 15.242188 87.390625 16.257812 83.941406 20.136719 C 82.175781 22.125 80.75 23.53125 80.75 23.335938 C 80.75 23.09375 81.375 22.027344 82.152344 20.960938 C 82.929688 19.847656 83.554688 18.730469 83.554688 18.488281 C 83.554688 18.199219 83.101562 18.003906 82.539062 18.003906 C 81.507812 18.003906 80.492188 19.023438 79.523438 21.007812 C 78.878906 22.367188 75.515625 25.324219 75.277344 24.789062 C 75 24.160156 75.472656 23.046875 76.808594 21.25 C 77.671875 20.089844 77.949219 19.457031 77.90625 18.730469 C 77.757812 16.5 75.449219 17.859375 72.046875 22.125 C 69.914062 24.886719 68.554688 25.613281 70.472656 23.046875 C 71.054688 22.269531 71.789062 21.15625 72.089844 20.574219 L 72.671875 19.507812 L 71.636719 19.457031 C 70.386719 19.457031 69.527344 20.378906 68.320312 22.996094 C 67.21875 25.324219 67.070312 27.40625 67.886719 28.230469 C 68.511719 28.863281 69.179688 28.28125 71.679688 24.839844 C 72.671875 23.480469 73.597656 22.367188 73.726562 22.367188 C 73.835938 22.367188 73.535156 23.289062 73.039062 24.355469 C 72.304688 26.003906 72.175781 26.535156 72.371094 27.261719 C 72.714844 28.714844 74.113281 28.425781 76.226562 26.488281 C 77.21875 25.566406 78.125 24.789062 78.230469 24.789062 C 78.339844 24.789062 78.617188 25.324219 78.855469 26.003906 C 79.09375 26.679688 79.460938 27.214844 79.695312 27.214844 C 80.191406 27.214844 81.570312 25.710938 82.800781 23.820312 C 83.898438 22.125 85.382812 20.425781 85.75 20.425781 C 85.902344 20.425781 85.515625 21.492188 84.867188 22.753906 C 83.984375 24.546875 83.726562 25.324219 83.832031 25.953125 C 84.070312 27.3125 85.492188 26.582031 87.539062 24.113281 C 88.488281 22.949219 89.5 21.832031 89.78125 21.640625 L 90.320312 21.25 L 89.738281 22.851562 C 89.046875 24.691406 89.070312 25.324219 89.867188 25.953125 C 90.511719 26.488281 92.023438 25.613281 94.199219 23.433594 C 95.125 22.511719 95.511719 22.316406 95.578125 22.753906 C 95.726562 23.820312 96.871094 24.789062 97.925781 24.789062 C 99.21875 24.789062 101.15625 23.675781 102.730469 22.074219 L 103.914062 20.863281 L 104.304688 22.125 C 104.820312 23.722656 105.273438 23.675781 106.179688 21.882812 C 107.105469 20.136719 107.277344 20.136719 108.332031 21.6875 C 109.90625 24.015625 111.046875 23.722656 115.164062 19.894531 C 115.765625 19.359375 115.898438 19.359375 116.261719 20.089844 C 117.210938 22.027344 117.964844 22.027344 120.035156 19.941406 C 122.230469 17.714844 122.449219 17.617188 122.125 18.925781 C 121.542969 21.445312 122.167969 22.171875 124.019531 21.105469 C 125.59375 20.183594 128.371094 17.132812 128.371094 16.308594 C 128.371094 15.871094 127.898438 16.113281 126.820312 17.082031 C 125.097656 18.585938 124.601562 18.78125 124.363281 17.90625 C 124.214844 17.375 124.753906 16.113281 125.789062 14.5625 C 126.238281 13.882812 126.28125 13.640625 126.046875 13.011719 C 125.832031 12.429688 125.832031 12.234375 126.046875 12.042969 C 126.261719 11.847656 126.261719 11.652344 126.003906 11.265625 C 124.945312 9.570312 119.019531 12.769531 116.652344 16.308594 C 115.25 18.390625 113.742188 19.847656 112.039062 20.71875 C 110.917969 21.300781 110.574219 21.300781 110.101562 20.816406 C 109.238281 19.894531 109.261719 18.78125 110.144531 17.808594 C 111.351562 16.550781 112.210938 16.257812 112.210938 17.226562 C 112.210938 18.78125 113.871094 17.566406 114.796875 15.339844 C 115.207031 14.367188 115.25 14.027344 115.011719 13.398438 C 114.410156 11.75 112.105469 13.15625 107.859375 17.664062 C 106.695312 18.925781 105.746094 19.699219 105.746094 19.457031 C 105.746094 18.972656 108.527344 15.144531 110.660156 12.671875 C 111.394531 11.800781 111.996094 10.925781 111.996094 10.683594 C 111.996094 10.199219 109.734375 10.152344 109.195312 10.585938 Z M 123.09375 14.417969 C 122.339844 15.726562 118.804688 19.410156 118.160156 19.554688 C 117.191406 19.796875 117.253906 18.632812 118.289062 17.472656 C 119.300781 16.308594 122.683594 13.691406 123.203125 13.691406 C 123.4375 13.691406 123.417969 13.882812 123.09375 14.417969 Z M 101.546875 15.582031 C 101.695312 16.113281 99.195312 18.972656 98.636719 18.972656 C 98.164062 18.925781 98.917969 17.714844 100.253906 16.257812 C 101.523438 14.902344 101.375 15 101.546875 15.582031 Z M 101.546875 15.582031 "/>
<path style=" stroke:none;fill-rule:nonzero;fill:rgb(100%,43.529412%,0%);fill-opacity:1;" d="M 7.207031 14.757812 C 7.144531 15.09375 7.101562 18.34375 7.101562 21.929688 L 7.101562 28.425781 L 3.632812 28.570312 L 0.164062 28.667969 L 0.164062 38.363281 L 3.632812 38.460938 L 7.078125 38.605469 L 7.121094 46.601562 L 7.164062 54.601562 L 19.664062 54.746094 C 34.917969 54.890625 36.878906 54.554688 40.175781 50.917969 C 41.988281 48.980469 42.613281 47.234375 42.613281 44.132812 C 42.613281 42 42.527344 41.5625 41.773438 39.867188 C 40.738281 37.539062 39.035156 35.695312 36.878906 34.628906 C 35.113281 33.757812 35.089844 33.757812 37.226562 32.351562 C 39.898438 30.605469 41.234375 27.648438 41.039062 23.917969 C 40.867188 20.183594 39.25 17.519531 35.976562 15.433594 C 34.378906 14.464844 33.84375 14.417969 20.828125 14.222656 C 9.472656 14.078125 7.316406 14.175781 7.207031 14.757812 Z M 14.773438 26.003906 L 14.835938 29.636719 L 21.710938 29.636719 L 21.710938 37.34375 L 18.328125 37.492188 L 14.921875 37.636719 L 14.859375 41.367188 L 14.792969 45.148438 L 7.941406 45.148438 L 7.875 41.367188 L 7.8125 37.636719 L 4.429688 37.492188 L 1.023438 37.34375 L 1.023438 29.636719 L 7.917969 29.636719 L 7.917969 26.050781 C 7.917969 23.09375 7.984375 22.414062 8.285156 22.269531 C 8.480469 22.171875 10.011719 22.171875 11.667969 22.222656 L 14.707031 22.316406 Z M 26.988281 24.304688 C 27.875 25.324219 27.9375 26.875 27.183594 28.039062 C 26.667969 28.765625 26.105469 28.910156 23.433594 28.910156 L 20.308594 28.910156 L 20.246094 26.097656 L 20.179688 23.289062 L 23.261719 23.433594 C 25.460938 23.53125 26.539062 23.773438 26.988281 24.304688 Z M 28.324219 39.476562 C 29.746094 41.175781 29.296875 44.035156 27.484375 44.617188 C 26.96875 44.761719 25.136719 44.859375 23.390625 44.761719 L 20.203125 44.566406 L 20.203125 38.265625 L 23.929688 38.460938 C 26.902344 38.605469 27.765625 38.800781 28.324219 39.476562 Z M 28.324219 39.476562 "/>
<path style=" stroke:none;fill-rule:nonzero;fill:rgb(100%,43.529412%,0%);fill-opacity:1;" d="M 94.738281 34.96875 C 94.175781 35.164062 93.292969 35.792969 92.734375 36.328125 L 91.742188 37.34375 L 91.742188 34.96875 L 84.414062 34.96875 L 84.414062 54.359375 L 92.386719 54.359375 L 92.386719 49.316406 C 92.386719 43.5 92.667969 42.09375 93.851562 42.09375 C 95.058594 42.09375 95.1875 42.726562 95.1875 48.832031 L 95.1875 54.359375 L 103.160156 54.359375 L 103.160156 42.824219 L 103.828125 42.242188 C 104.28125 41.804688 104.671875 41.757812 105.058594 42.046875 L 105.640625 42.484375 L 105.703125 48.445312 L 105.769531 54.359375 L 113.71875 54.359375 L 113.71875 46.652344 C 113.71875 39.042969 113.71875 38.992188 113.160156 37.734375 C 112.167969 35.503906 110.703125 34.726562 107.578125 34.777344 C 105.230469 34.777344 104.585938 34.96875 103.550781 35.890625 L 102.34375 36.957031 L 101.050781 35.988281 C 99.585938 34.871094 96.246094 34.339844 94.738281 34.96875 Z M 94.738281 34.96875 "/>
<path style=" stroke:none;fill-rule:nonzero;fill:rgb(100%,43.529412%,0%);fill-opacity:1;" d="M 44.550781 42.773438 L 44.550781 50.578125 L 45.261719 52.179688 C 45.671875 53.097656 46.382812 54.019531 46.921875 54.359375 C 48.300781 55.183594 54.507812 54.796875 55.714844 53.777344 C 56.511719 53.097656 56.660156 53.097656 56.769531 53.679688 C 56.855469 54.214844 57.609375 54.359375 60.625 54.359375 L 64.375 54.359375 L 64.375 34.96875 L 56.660156 34.96875 L 56.574219 40.835938 C 56.488281 46.265625 56.445312 46.796875 55.992188 47.621094 C 55.324219 48.882812 54.03125 48.832031 53.300781 47.523438 C 52.761719 46.554688 52.738281 46.410156 52.738281 40.738281 L 52.738281 34.96875 L 44.550781 34.96875 Z M 44.550781 42.773438 "/>
<path style=" stroke:none;fill-rule:nonzero;fill:rgb(100%,43.529412%,0%);fill-opacity:1;" d="M 71.054688 35.695312 C 68.621094 36.8125 67.261719 38.507812 66.636719 41.269531 C 66.121094 43.5 66.230469 47.039062 66.851562 49.125 C 67.5 51.304688 69.527344 53.632812 71.378906 54.40625 C 72.757812 54.988281 80.601562 54.84375 80.882812 54.261719 C 80.96875 54.070312 81.160156 52.421875 81.3125 50.675781 L 81.570312 47.476562 L 80.882812 47.765625 C 80.515625 47.914062 79.351562 48.203125 78.273438 48.347656 C 76.765625 48.589844 76.164062 48.492188 75.515625 47.914062 C 74.050781 46.507812 74.070312 43.792969 75.539062 42.386719 C 76.183594 41.804688 76.875 41.707031 79.050781 41.902344 L 81.765625 42.144531 L 81.417969 38.945312 L 81.054688 35.695312 L 79.867188 35.359375 C 77.863281 34.824219 72.519531 35.019531 71.054688 35.695312 Z M 71.054688 35.695312 "/>
<path style=" stroke:none;fill-rule:nonzero;fill:rgb(100%,43.529412%,0%);fill-opacity:1;" d="M 122.554688 35.261719 C 122.382812 35.308594 121.5 35.550781 120.59375 35.695312 L 118.976562 35.988281 L 118.761719 38.894531 L 118.546875 41.851562 L 119.085938 41.5625 C 119.386719 41.417969 120.917969 40.980469 122.492188 40.496094 C 125.441406 39.671875 127.296875 39.867188 127.296875 41.027344 C 127.296875 42 126.777344 42.242188 124.0625 42.773438 C 118.675781 43.792969 117.082031 44.957031 116.542969 48.15625 C 116.21875 50.046875 116.695312 51.5 118.136719 53.148438 C 119.34375 54.503906 119.601562 54.601562 122.492188 54.796875 L 125.527344 54.941406 L 125.980469 52.953125 C 126.605469 50.289062 126.5625 49.996094 125.59375 49.996094 C 124.539062 49.996094 123.976562 48.785156 124.730469 48.105469 C 125.011719 47.914062 125.765625 47.523438 126.390625 47.332031 L 127.511719 46.992188 L 127.511719 54.359375 L 134.835938 54.359375 L 134.835938 37.539062 L 134.039062 36.761719 C 132.640625 35.40625 130.785156 34.96875 126.777344 35.019531 C 124.625 35.066406 122.726562 35.164062 122.554688 35.261719 Z M 122.554688 35.261719 "/>
</g>
</svg>
